<mxfile host="Electron" agent="Mozilla/5.0 (Windows NT 10.0; Win64; x64) AppleWebKit/537.36 (KHTML, like Gecko) draw.io/24.7.17 Chrome/128.0.6613.36 Electron/32.0.1 Safari/537.36" version="24.7.17">
  <diagram name="Page-1" id="wCSDUpPiNJqGE7r2-nVu">
    <mxGraphModel dx="1363" dy="423" grid="1" gridSize="10" guides="1" tooltips="1" connect="1" arrows="1" fold="1" page="1" pageScale="1" pageWidth="827" pageHeight="1169" math="0" shadow="0">
      <root>
        <mxCell id="0" />
        <mxCell id="1" parent="0" />
        <mxCell id="SSiOezis2omG5OEUpRwd-48" value="Órarend" style="whiteSpace=wrap;html=1;align=center;" vertex="1" parent="1">
          <mxGeometry x="-140" y="160" width="120" height="40" as="geometry" />
        </mxCell>
        <mxCell id="SSiOezis2omG5OEUpRwd-49" value="&lt;u&gt;Tartalmaz&lt;/u&gt;" style="rhombus;whiteSpace=wrap;html=1;" vertex="1" parent="1">
          <mxGeometry x="-120" y="240" width="80" height="80" as="geometry" />
        </mxCell>
        <mxCell id="SSiOezis2omG5OEUpRwd-50" value="Óra" style="whiteSpace=wrap;html=1;align=center;" vertex="1" parent="1">
          <mxGeometry x="-140" y="360" width="120" height="40" as="geometry" />
        </mxCell>
        <mxCell id="SSiOezis2omG5OEUpRwd-68" value="Helyszín" style="ellipse;whiteSpace=wrap;html=1;align=center;" vertex="1" parent="1">
          <mxGeometry x="-110" y="440" width="60" height="40" as="geometry" />
        </mxCell>
        <mxCell id="SSiOezis2omG5OEUpRwd-69" value="Oktató" style="ellipse;whiteSpace=wrap;html=1;align=center;" vertex="1" parent="1">
          <mxGeometry x="30" y="440" width="60" height="40" as="geometry" />
        </mxCell>
        <mxCell id="SSiOezis2omG5OEUpRwd-70" value="Tárgy" style="ellipse;whiteSpace=wrap;html=1;align=center;" vertex="1" parent="1">
          <mxGeometry x="-180" y="440" width="60" height="40" as="geometry" />
        </mxCell>
        <mxCell id="SSiOezis2omG5OEUpRwd-71" value="Szak" style="ellipse;whiteSpace=wrap;html=1;align=center;" vertex="1" parent="1">
          <mxGeometry x="-40" y="440" width="60" height="40" as="geometry" />
        </mxCell>
        <mxCell id="SSiOezis2omG5OEUpRwd-72" value="Időpont" style="ellipse;whiteSpace=wrap;html=1;align=center;" vertex="1" parent="1">
          <mxGeometry x="-250" y="440" width="60" height="40" as="geometry" />
        </mxCell>
        <mxCell id="SSiOezis2omG5OEUpRwd-73" value="Óra adó" style="ellipse;whiteSpace=wrap;html=1;align=center;" vertex="1" parent="1">
          <mxGeometry x="100" y="440" width="60" height="40" as="geometry" />
        </mxCell>
        <mxCell id="SSiOezis2omG5OEUpRwd-74" style="rounded=0;orthogonalLoop=1;jettySize=auto;html=1;exitX=0.5;exitY=1;exitDx=0;exitDy=0;entryX=0.5;entryY=0;entryDx=0;entryDy=0;endArrow=none;endFill=0;" edge="1" parent="1" target="SSiOezis2omG5OEUpRwd-72" source="SSiOezis2omG5OEUpRwd-50">
          <mxGeometry relative="1" as="geometry">
            <mxPoint x="-80" y="400" as="sourcePoint" />
            <mxPoint x="-70" y="370" as="targetPoint" />
          </mxGeometry>
        </mxCell>
        <mxCell id="SSiOezis2omG5OEUpRwd-75" style="rounded=0;orthogonalLoop=1;jettySize=auto;html=1;exitX=0.5;exitY=1;exitDx=0;exitDy=0;entryX=0.5;entryY=0;entryDx=0;entryDy=0;endArrow=none;endFill=0;" edge="1" parent="1" target="SSiOezis2omG5OEUpRwd-70" source="SSiOezis2omG5OEUpRwd-50">
          <mxGeometry relative="1" as="geometry">
            <mxPoint x="-80" y="400" as="sourcePoint" />
            <mxPoint x="-60" y="380" as="targetPoint" />
          </mxGeometry>
        </mxCell>
        <mxCell id="SSiOezis2omG5OEUpRwd-76" style="rounded=0;orthogonalLoop=1;jettySize=auto;html=1;entryX=0.5;entryY=0;entryDx=0;entryDy=0;endArrow=none;endFill=0;exitX=0.5;exitY=1;exitDx=0;exitDy=0;" edge="1" parent="1" target="SSiOezis2omG5OEUpRwd-68" source="SSiOezis2omG5OEUpRwd-50">
          <mxGeometry relative="1" as="geometry">
            <mxPoint x="-80" y="390" as="sourcePoint" />
            <mxPoint x="-50" y="390" as="targetPoint" />
          </mxGeometry>
        </mxCell>
        <mxCell id="SSiOezis2omG5OEUpRwd-77" style="rounded=0;orthogonalLoop=1;jettySize=auto;html=1;entryX=0.5;entryY=0;entryDx=0;entryDy=0;endArrow=none;endFill=0;exitX=0.5;exitY=1;exitDx=0;exitDy=0;" edge="1" parent="1" target="SSiOezis2omG5OEUpRwd-71">
          <mxGeometry relative="1" as="geometry">
            <mxPoint x="-80" y="400" as="sourcePoint" />
            <mxPoint x="-40" y="400" as="targetPoint" />
          </mxGeometry>
        </mxCell>
        <mxCell id="SSiOezis2omG5OEUpRwd-78" style="rounded=0;orthogonalLoop=1;jettySize=auto;html=1;entryX=0.5;entryY=0;entryDx=0;entryDy=0;endArrow=none;endFill=0;exitX=0.5;exitY=1;exitDx=0;exitDy=0;" edge="1" parent="1" target="SSiOezis2omG5OEUpRwd-69">
          <mxGeometry relative="1" as="geometry">
            <mxPoint x="-80" y="400" as="sourcePoint" />
            <mxPoint x="-30" y="410" as="targetPoint" />
          </mxGeometry>
        </mxCell>
        <mxCell id="SSiOezis2omG5OEUpRwd-79" style="rounded=0;orthogonalLoop=1;jettySize=auto;html=1;exitX=0.5;exitY=0;exitDx=0;exitDy=0;entryX=0.5;entryY=1;entryDx=0;entryDy=0;endArrow=none;endFill=0;" edge="1" parent="1" source="SSiOezis2omG5OEUpRwd-73" target="SSiOezis2omG5OEUpRwd-50">
          <mxGeometry relative="1" as="geometry">
            <mxPoint x="-20" y="380" as="sourcePoint" />
            <mxPoint x="-80" y="400" as="targetPoint" />
          </mxGeometry>
        </mxCell>
        <mxCell id="SSiOezis2omG5OEUpRwd-80" value="Ig" style="ellipse;whiteSpace=wrap;html=1;align=center;" vertex="1" parent="1">
          <mxGeometry x="-180" y="520" width="60" height="40" as="geometry" />
        </mxCell>
        <mxCell id="SSiOezis2omG5OEUpRwd-81" value="Tól" style="ellipse;whiteSpace=wrap;html=1;align=center;" vertex="1" parent="1">
          <mxGeometry x="-250" y="520" width="60" height="40" as="geometry" />
        </mxCell>
        <mxCell id="SSiOezis2omG5OEUpRwd-82" value="Nap" style="ellipse;whiteSpace=wrap;html=1;align=center;" vertex="1" parent="1">
          <mxGeometry x="-320" y="520" width="60" height="40" as="geometry" />
        </mxCell>
        <mxCell id="SSiOezis2omG5OEUpRwd-83" style="rounded=0;orthogonalLoop=1;jettySize=auto;html=1;exitX=0.5;exitY=1;exitDx=0;exitDy=0;entryX=0.5;entryY=0;entryDx=0;entryDy=0;endArrow=none;endFill=0;" edge="1" parent="1" source="SSiOezis2omG5OEUpRwd-72" target="SSiOezis2omG5OEUpRwd-82">
          <mxGeometry relative="1" as="geometry">
            <mxPoint x="-70" y="410" as="sourcePoint" />
            <mxPoint x="-210" y="450" as="targetPoint" />
          </mxGeometry>
        </mxCell>
        <mxCell id="SSiOezis2omG5OEUpRwd-84" style="rounded=0;orthogonalLoop=1;jettySize=auto;html=1;exitX=0.5;exitY=0;exitDx=0;exitDy=0;entryX=0.5;entryY=1;entryDx=0;entryDy=0;endArrow=none;endFill=0;" edge="1" parent="1" source="SSiOezis2omG5OEUpRwd-80" target="SSiOezis2omG5OEUpRwd-72">
          <mxGeometry relative="1" as="geometry">
            <mxPoint x="-60" y="420" as="sourcePoint" />
            <mxPoint x="-200" y="460" as="targetPoint" />
          </mxGeometry>
        </mxCell>
        <mxCell id="SSiOezis2omG5OEUpRwd-85" style="rounded=0;orthogonalLoop=1;jettySize=auto;html=1;exitX=0.5;exitY=0;exitDx=0;exitDy=0;entryX=0.5;entryY=1;entryDx=0;entryDy=0;endArrow=none;endFill=0;" edge="1" parent="1" source="SSiOezis2omG5OEUpRwd-81" target="SSiOezis2omG5OEUpRwd-72">
          <mxGeometry relative="1" as="geometry">
            <mxPoint x="-50" y="430" as="sourcePoint" />
            <mxPoint x="-190" y="470" as="targetPoint" />
          </mxGeometry>
        </mxCell>
        <mxCell id="SSiOezis2omG5OEUpRwd-86" value="&lt;u&gt;ID&lt;/u&gt;" style="ellipse;whiteSpace=wrap;html=1;align=center;" vertex="1" parent="1">
          <mxGeometry x="-390" y="440" width="60" height="40" as="geometry" />
        </mxCell>
        <mxCell id="SSiOezis2omG5OEUpRwd-87" value="&lt;u&gt;Típus&lt;/u&gt;" style="ellipse;whiteSpace=wrap;html=1;align=center;" vertex="1" parent="1">
          <mxGeometry x="-320" y="440" width="60" height="40" as="geometry" />
        </mxCell>
        <mxCell id="SSiOezis2omG5OEUpRwd-91" value="" style="endArrow=classic;html=1;rounded=0;entryX=0.5;entryY=1;entryDx=0;entryDy=0;exitX=0.5;exitY=0;exitDx=0;exitDy=0;" edge="1" parent="1" source="SSiOezis2omG5OEUpRwd-49" target="SSiOezis2omG5OEUpRwd-48">
          <mxGeometry width="50" height="50" relative="1" as="geometry">
            <mxPoint x="40" y="280" as="sourcePoint" />
            <mxPoint x="40" y="190" as="targetPoint" />
          </mxGeometry>
        </mxCell>
        <mxCell id="SSiOezis2omG5OEUpRwd-93" value="" style="endArrow=doubleBlock;html=1;rounded=0;entryX=0.5;entryY=0;entryDx=0;entryDy=0;exitX=0.5;exitY=1;exitDx=0;exitDy=0;endFill=1;" edge="1" parent="1" source="SSiOezis2omG5OEUpRwd-49" target="SSiOezis2omG5OEUpRwd-50">
          <mxGeometry width="50" height="50" relative="1" as="geometry">
            <mxPoint x="440" y="190" as="sourcePoint" />
            <mxPoint x="440" y="100" as="targetPoint" />
          </mxGeometry>
        </mxCell>
        <mxCell id="SSiOezis2omG5OEUpRwd-94" style="rounded=0;orthogonalLoop=1;jettySize=auto;html=1;entryX=0.5;entryY=0;entryDx=0;entryDy=0;endArrow=none;endFill=0;exitX=0.5;exitY=1;exitDx=0;exitDy=0;" edge="1" parent="1" source="SSiOezis2omG5OEUpRwd-50" target="SSiOezis2omG5OEUpRwd-87">
          <mxGeometry relative="1" as="geometry">
            <mxPoint x="-70" y="410" as="sourcePoint" />
            <mxPoint x="-70" y="450" as="targetPoint" />
          </mxGeometry>
        </mxCell>
        <mxCell id="SSiOezis2omG5OEUpRwd-95" style="rounded=0;orthogonalLoop=1;jettySize=auto;html=1;entryX=0.5;entryY=0;entryDx=0;entryDy=0;endArrow=none;endFill=0;exitX=0.5;exitY=1;exitDx=0;exitDy=0;" edge="1" parent="1" source="SSiOezis2omG5OEUpRwd-50" target="SSiOezis2omG5OEUpRwd-86">
          <mxGeometry relative="1" as="geometry">
            <mxPoint x="-60" y="420" as="sourcePoint" />
            <mxPoint x="-60" y="460" as="targetPoint" />
          </mxGeometry>
        </mxCell>
      </root>
    </mxGraphModel>
  </diagram>
</mxfile>
